<svg width="48" height="48" viewBox="0 0 48 48" fill="none" xmlns="http://www.w3.org/2000/svg">
<rect width="48" height="48" fill="white"/>
<circle cx="24" cy="26" r="6.5" stroke="#FF498B" stroke-width="3"/>
<path d="M39 18L34 18" stroke="#152C5B" stroke-width="3" stroke-linecap="round"/>
<mask id="path-3-inside-1_36_27" fill="white">
<path fill-rule="evenodd" clip-rule="evenodd" d="M18.4009 6C17.5598 6 16.8087 6.52613 16.5213 7.31651L15.1818 11H8C3.58172 11 0 14.5817 0 19V33C0 37.4183 3.58172 41 8 41H40C44.4183 41 48 37.4183 48 33V19C48 14.5817 44.4183 11 40 11H32.8182L31.4787 7.31651C31.1913 6.52614 30.4402 6 29.5991 6H18.4009Z"/>
</mask>
<path d="M16.5213 7.31651L13.7019 6.29128V6.29128L16.5213 7.31651ZM15.1818 11V14H17.2831L18.0012 12.0252L15.1818 11ZM32.8182 11L29.9988 12.0252L30.7169 14H32.8182V11ZM31.4787 7.31651L34.2981 6.29128V6.29128L31.4787 7.31651ZM19.3406 8.34174C19.1969 8.73693 18.8214 9 18.4009 9V3C16.2983 3 14.4204 4.31534 13.7019 6.29128L19.3406 8.34174ZM18.0012 12.0252L19.3406 8.34174L13.7019 6.29128L12.3624 9.97477L18.0012 12.0252ZM8 14H15.1818V8H8V14ZM3 19C3 16.2386 5.23858 14 8 14V8C1.92487 8 -3 12.9249 -3 19H3ZM3 33V19H-3V33H3ZM8 38C5.23858 38 3 35.7614 3 33H-3C-3 39.0751 1.92487 44 8 44V38ZM40 38H8V44H40V38ZM45 33C45 35.7614 42.7614 38 40 38V44C46.0751 44 51 39.0751 51 33H45ZM45 19V33H51V19H45ZM40 14C42.7614 14 45 16.2386 45 19H51C51 12.9249 46.0751 8 40 8V14ZM32.8182 14H40V8H32.8182V14ZM28.6594 8.34174L29.9988 12.0252L35.6376 9.97477L34.2981 6.29128L28.6594 8.34174ZM29.5991 9C29.1786 9 28.8031 8.73693 28.6594 8.34174L34.2981 6.29128C33.5796 4.31534 31.7017 3 29.5991 3V9ZM18.4009 9H29.5991V3H18.4009V9Z" fill="#152C5B" mask="url(#path-3-inside-1_36_27)"/>
</svg>
