<svg width="48" height="48" viewBox="0 0 48 48" fill="none" xmlns="http://www.w3.org/2000/svg">
<rect width="48" height="48" fill="white"/>
<path d="M30.5 40.5C30.5 41.6457 29.4516 43.1445 26.6771 44.4451C24.0221 45.6896 20.2488 46.5 16 46.5C11.7512 46.5 7.97793 45.6896 5.32294 44.4451C2.54839 43.1445 1.5 41.6457 1.5 40.5C1.5 39.3543 2.54839 37.8555 5.32294 36.5549C7.97793 35.3104 11.7512 34.5 16 34.5C20.2488 34.5 24.0221 35.3104 26.6771 36.5549C29.4516 37.8555 30.5 39.3543 30.5 40.5Z" stroke="#152C5B" stroke-width="3"/>
<path d="M28.5 11.5663C28.5 14.4899 27.0065 21.3957 24.5075 27.6197C23.2653 30.7136 21.8178 33.5265 20.2627 35.5381C18.6589 37.6128 17.206 38.5 16 38.5C14.794 38.5 13.3411 37.6128 11.7373 35.5381C10.1822 33.5265 8.73474 30.7136 7.4925 27.6197C4.9935 21.3957 3.5 14.4899 3.5 11.5663C3.5 6.26213 8.81568 1.5 16 1.5C23.1843 1.5 28.5 6.26213 28.5 11.5663Z" fill="white" stroke="#152C5B" stroke-width="3"/>
<circle cx="16" cy="14" r="4.5" stroke="#FF498B" stroke-width="3"/>
</svg>
