<svg width="32" height="30" viewBox="0 0 32 30" fill="none" xmlns="http://www.w3.org/2000/svg">
<path d="M14.9277 1.15399C15.2294 0.237597 16.5257 0.2376 16.8274 1.15399L19.7201 9.94041C19.8551 10.3506 20.2381 10.6277 20.6699 10.6277H30.0024C30.9743 10.6277 31.375 11.874 30.5851 12.4404L23.0577 17.838C22.7026 18.0927 22.5539 18.5484 22.6906 18.9634L25.5711 27.7132C25.8737 28.6322 24.8248 29.4023 24.0385 28.8385L16.4603 23.4045C16.112 23.1547 15.6432 23.1547 15.2948 23.4045L7.71662 28.8385C6.93035 29.4023 5.88149 28.6322 6.18404 27.7132L9.06459 18.9634C9.20123 18.5484 9.05257 18.0927 8.69747 17.838L1.17001 12.4404C0.380175 11.874 0.780837 10.6277 1.75274 10.6277H11.0852C11.517 10.6277 11.9001 10.3506 12.0351 9.94041L14.9277 1.15399Z" fill="#FFDA7A"/>
</svg>
